<mxfile host="app.diagrams.net" modified="2021-05-21T01:52:39.451Z" agent="5.0 (Windows NT 10.0; Win64; x64) AppleWebKit/537.36 (KHTML, like Gecko) Chrome/90.0.4430.212 Safari/537.36" etag="Q0g3DQMIJlttL8-gpBqb" version="14.6.11" type="github">
  <diagram id="4mptfkAIrKsM1y5FACxD" name="Page-1">
    <mxGraphModel dx="1368" dy="922" grid="1" gridSize="10" guides="1" tooltips="1" connect="1" arrows="1" fold="1" page="1" pageScale="1" pageWidth="827" pageHeight="1169" math="0" shadow="0">
      <root>
        <mxCell id="0" />
        <mxCell id="1" parent="0" />
        <mxCell id="rzQN3DZ-VCI8eHmGOcTg-18" style="edgeStyle=orthogonalEdgeStyle;rounded=0;orthogonalLoop=1;jettySize=auto;html=1;exitX=1;exitY=0.5;exitDx=0;exitDy=0;entryX=0;entryY=0.5;entryDx=0;entryDy=0;endArrow=none;endFill=0;" edge="1" parent="1" source="rzQN3DZ-VCI8eHmGOcTg-1" target="rzQN3DZ-VCI8eHmGOcTg-3">
          <mxGeometry relative="1" as="geometry" />
        </mxCell>
        <mxCell id="rzQN3DZ-VCI8eHmGOcTg-19" style="edgeStyle=orthogonalEdgeStyle;rounded=0;orthogonalLoop=1;jettySize=auto;html=1;exitX=0;exitY=0.5;exitDx=0;exitDy=0;entryX=1;entryY=0.5;entryDx=0;entryDy=0;endArrow=none;endFill=0;" edge="1" parent="1" source="rzQN3DZ-VCI8eHmGOcTg-1" target="rzQN3DZ-VCI8eHmGOcTg-2">
          <mxGeometry relative="1" as="geometry" />
        </mxCell>
        <mxCell id="rzQN3DZ-VCI8eHmGOcTg-1" value="COMPRA" style="rhombus;whiteSpace=wrap;html=1;" vertex="1" parent="1">
          <mxGeometry x="370" y="375" width="80" height="80" as="geometry" />
        </mxCell>
        <mxCell id="rzQN3DZ-VCI8eHmGOcTg-2" value="PRODUCTO" style="rounded=0;whiteSpace=wrap;html=1;" vertex="1" parent="1">
          <mxGeometry x="190" y="385" width="120" height="60" as="geometry" />
        </mxCell>
        <mxCell id="rzQN3DZ-VCI8eHmGOcTg-3" value="CLIENTE" style="rounded=0;whiteSpace=wrap;html=1;" vertex="1" parent="1">
          <mxGeometry x="540" y="385" width="120" height="60" as="geometry" />
        </mxCell>
        <mxCell id="rzQN3DZ-VCI8eHmGOcTg-59" style="edgeStyle=orthogonalEdgeStyle;rounded=0;orthogonalLoop=1;jettySize=auto;html=1;exitX=0;exitY=0.5;exitDx=0;exitDy=0;entryX=0.846;entryY=0.992;entryDx=0;entryDy=0;entryPerimeter=0;endArrow=none;endFill=0;" edge="1" parent="1" source="rzQN3DZ-VCI8eHmGOcTg-6" target="rzQN3DZ-VCI8eHmGOcTg-3">
          <mxGeometry relative="1" as="geometry" />
        </mxCell>
        <mxCell id="rzQN3DZ-VCI8eHmGOcTg-6" value="DIRECCION" style="ellipse;whiteSpace=wrap;html=1;" vertex="1" parent="1">
          <mxGeometry x="740" y="500" width="90" height="50" as="geometry" />
        </mxCell>
        <mxCell id="rzQN3DZ-VCI8eHmGOcTg-13" style="edgeStyle=orthogonalEdgeStyle;rounded=0;orthogonalLoop=1;jettySize=auto;html=1;exitX=0;exitY=0.5;exitDx=0;exitDy=0;entryX=0.933;entryY=0;entryDx=0;entryDy=0;entryPerimeter=0;endArrow=none;endFill=0;" edge="1" parent="1" source="rzQN3DZ-VCI8eHmGOcTg-11" target="rzQN3DZ-VCI8eHmGOcTg-3">
          <mxGeometry relative="1" as="geometry">
            <Array as="points">
              <mxPoint x="640" y="295" />
              <mxPoint x="640" y="385" />
            </Array>
          </mxGeometry>
        </mxCell>
        <mxCell id="rzQN3DZ-VCI8eHmGOcTg-11" value="CODIGO" style="ellipse;whiteSpace=wrap;html=1;" vertex="1" parent="1">
          <mxGeometry x="740" y="270" width="90" height="50" as="geometry" />
        </mxCell>
        <mxCell id="rzQN3DZ-VCI8eHmGOcTg-15" style="edgeStyle=orthogonalEdgeStyle;rounded=0;orthogonalLoop=1;jettySize=auto;html=1;exitX=0;exitY=0.5;exitDx=0;exitDy=0;entryX=1;entryY=0;entryDx=0;entryDy=0;endArrow=none;endFill=0;" edge="1" parent="1" source="rzQN3DZ-VCI8eHmGOcTg-12" target="rzQN3DZ-VCI8eHmGOcTg-3">
          <mxGeometry relative="1" as="geometry">
            <Array as="points">
              <mxPoint x="650" y="345" />
              <mxPoint x="650" y="385" />
            </Array>
          </mxGeometry>
        </mxCell>
        <mxCell id="rzQN3DZ-VCI8eHmGOcTg-12" value="APELLIDOS" style="ellipse;whiteSpace=wrap;html=1;" vertex="1" parent="1">
          <mxGeometry x="850" y="320" width="90" height="50" as="geometry" />
        </mxCell>
        <mxCell id="rzQN3DZ-VCI8eHmGOcTg-43" style="edgeStyle=orthogonalEdgeStyle;rounded=0;orthogonalLoop=1;jettySize=auto;html=1;exitX=1;exitY=0.5;exitDx=0;exitDy=0;entryX=0.108;entryY=0.033;entryDx=0;entryDy=0;entryPerimeter=0;endArrow=none;endFill=0;" edge="1" parent="1" source="rzQN3DZ-VCI8eHmGOcTg-24" target="rzQN3DZ-VCI8eHmGOcTg-2">
          <mxGeometry relative="1" as="geometry" />
        </mxCell>
        <mxCell id="rzQN3DZ-VCI8eHmGOcTg-24" value="CODIGO" style="ellipse;whiteSpace=wrap;html=1;" vertex="1" parent="1">
          <mxGeometry x="-80" y="290" width="90" height="50" as="geometry" />
        </mxCell>
        <mxCell id="rzQN3DZ-VCI8eHmGOcTg-45" style="edgeStyle=orthogonalEdgeStyle;rounded=0;orthogonalLoop=1;jettySize=auto;html=1;exitX=1;exitY=0.5;exitDx=0;exitDy=0;entryX=0;entryY=0.25;entryDx=0;entryDy=0;endArrow=none;endFill=0;" edge="1" parent="1" source="rzQN3DZ-VCI8eHmGOcTg-25" target="rzQN3DZ-VCI8eHmGOcTg-2">
          <mxGeometry relative="1" as="geometry" />
        </mxCell>
        <mxCell id="rzQN3DZ-VCI8eHmGOcTg-25" value="DESCRIPCION" style="ellipse;whiteSpace=wrap;html=1;" vertex="1" parent="1">
          <mxGeometry y="340" width="90" height="50" as="geometry" />
        </mxCell>
        <mxCell id="rzQN3DZ-VCI8eHmGOcTg-47" style="edgeStyle=orthogonalEdgeStyle;rounded=0;orthogonalLoop=1;jettySize=auto;html=1;exitX=1;exitY=0.5;exitDx=0;exitDy=0;entryX=0;entryY=0.75;entryDx=0;entryDy=0;endArrow=none;endFill=0;" edge="1" parent="1" source="rzQN3DZ-VCI8eHmGOcTg-26" target="rzQN3DZ-VCI8eHmGOcTg-2">
          <mxGeometry relative="1" as="geometry" />
        </mxCell>
        <mxCell id="rzQN3DZ-VCI8eHmGOcTg-26" value="PRECIO" style="ellipse;whiteSpace=wrap;html=1;" vertex="1" parent="1">
          <mxGeometry y="430" width="90" height="50" as="geometry" />
        </mxCell>
        <mxCell id="rzQN3DZ-VCI8eHmGOcTg-44" style="edgeStyle=orthogonalEdgeStyle;rounded=0;orthogonalLoop=1;jettySize=auto;html=1;exitX=1;exitY=0.5;exitDx=0;exitDy=0;entryX=0.108;entryY=0.983;entryDx=0;entryDy=0;entryPerimeter=0;endArrow=none;endFill=0;" edge="1" parent="1" source="rzQN3DZ-VCI8eHmGOcTg-27" target="rzQN3DZ-VCI8eHmGOcTg-2">
          <mxGeometry relative="1" as="geometry" />
        </mxCell>
        <mxCell id="rzQN3DZ-VCI8eHmGOcTg-27" value="EXISTENCIAS" style="ellipse;whiteSpace=wrap;html=1;" vertex="1" parent="1">
          <mxGeometry x="-80" y="480" width="90" height="50" as="geometry" />
        </mxCell>
        <mxCell id="rzQN3DZ-VCI8eHmGOcTg-40" style="edgeStyle=orthogonalEdgeStyle;rounded=0;orthogonalLoop=1;jettySize=auto;html=1;exitX=0;exitY=0.5;exitDx=0;exitDy=0;entryX=1;entryY=1;entryDx=0;entryDy=0;endArrow=none;endFill=0;" edge="1" parent="1" source="rzQN3DZ-VCI8eHmGOcTg-28" target="rzQN3DZ-VCI8eHmGOcTg-3">
          <mxGeometry relative="1" as="geometry">
            <Array as="points">
              <mxPoint x="650" y="475" />
              <mxPoint x="650" y="445" />
            </Array>
          </mxGeometry>
        </mxCell>
        <mxCell id="rzQN3DZ-VCI8eHmGOcTg-28" value="NOMBRE" style="ellipse;whiteSpace=wrap;html=1;" vertex="1" parent="1">
          <mxGeometry x="850" y="450" width="90" height="50" as="geometry" />
        </mxCell>
        <mxCell id="rzQN3DZ-VCI8eHmGOcTg-41" style="edgeStyle=orthogonalEdgeStyle;rounded=0;orthogonalLoop=1;jettySize=auto;html=1;exitX=0;exitY=0.5;exitDx=0;exitDy=0;entryX=1;entryY=0.633;entryDx=0;entryDy=0;entryPerimeter=0;endArrow=none;endFill=0;" edge="1" parent="1" source="rzQN3DZ-VCI8eHmGOcTg-29" target="rzQN3DZ-VCI8eHmGOcTg-3">
          <mxGeometry relative="1" as="geometry">
            <Array as="points">
              <mxPoint x="660" y="415" />
            </Array>
          </mxGeometry>
        </mxCell>
        <mxCell id="rzQN3DZ-VCI8eHmGOcTg-29" value="TELEFONO" style="ellipse;whiteSpace=wrap;html=1;" vertex="1" parent="1">
          <mxGeometry x="890" y="390" width="90" height="50" as="geometry" />
        </mxCell>
        <mxCell id="rzQN3DZ-VCI8eHmGOcTg-31" style="edgeStyle=orthogonalEdgeStyle;rounded=0;orthogonalLoop=1;jettySize=auto;html=1;exitX=0.5;exitY=1;exitDx=0;exitDy=0;entryX=0.5;entryY=0;entryDx=0;entryDy=0;endArrow=none;endFill=0;" edge="1" parent="1" source="rzQN3DZ-VCI8eHmGOcTg-32" target="rzQN3DZ-VCI8eHmGOcTg-34">
          <mxGeometry relative="1" as="geometry" />
        </mxCell>
        <mxCell id="rzQN3DZ-VCI8eHmGOcTg-42" style="edgeStyle=orthogonalEdgeStyle;rounded=0;orthogonalLoop=1;jettySize=auto;html=1;exitX=0.5;exitY=0;exitDx=0;exitDy=0;entryX=0.5;entryY=1;entryDx=0;entryDy=0;endArrow=none;endFill=0;" edge="1" parent="1" source="rzQN3DZ-VCI8eHmGOcTg-32" target="rzQN3DZ-VCI8eHmGOcTg-2">
          <mxGeometry relative="1" as="geometry" />
        </mxCell>
        <mxCell id="rzQN3DZ-VCI8eHmGOcTg-32" value="&lt;font style=&quot;font-size: 11px&quot;&gt;SUMINISTRA&lt;/font&gt;" style="rhombus;whiteSpace=wrap;html=1;" vertex="1" parent="1">
          <mxGeometry x="210" y="550" width="80" height="80" as="geometry" />
        </mxCell>
        <mxCell id="rzQN3DZ-VCI8eHmGOcTg-34" value="PROVEEDOR" style="rounded=0;whiteSpace=wrap;html=1;" vertex="1" parent="1">
          <mxGeometry x="190" y="700" width="120" height="60" as="geometry" />
        </mxCell>
        <mxCell id="rzQN3DZ-VCI8eHmGOcTg-53" style="edgeStyle=orthogonalEdgeStyle;rounded=0;orthogonalLoop=1;jettySize=auto;html=1;exitX=0.5;exitY=0;exitDx=0;exitDy=0;entryX=0.5;entryY=1;entryDx=0;entryDy=0;endArrow=none;endFill=0;" edge="1" parent="1" source="rzQN3DZ-VCI8eHmGOcTg-35" target="rzQN3DZ-VCI8eHmGOcTg-34">
          <mxGeometry relative="1" as="geometry" />
        </mxCell>
        <mxCell id="rzQN3DZ-VCI8eHmGOcTg-35" value="NOMBRE" style="ellipse;whiteSpace=wrap;html=1;" vertex="1" parent="1">
          <mxGeometry x="205" y="940" width="90" height="50" as="geometry" />
        </mxCell>
        <mxCell id="rzQN3DZ-VCI8eHmGOcTg-50" style="edgeStyle=orthogonalEdgeStyle;rounded=0;orthogonalLoop=1;jettySize=auto;html=1;exitX=0.5;exitY=0;exitDx=0;exitDy=0;entryX=-0.008;entryY=0.883;entryDx=0;entryDy=0;entryPerimeter=0;endArrow=none;endFill=0;" edge="1" parent="1" source="rzQN3DZ-VCI8eHmGOcTg-37" target="rzQN3DZ-VCI8eHmGOcTg-34">
          <mxGeometry relative="1" as="geometry" />
        </mxCell>
        <mxCell id="rzQN3DZ-VCI8eHmGOcTg-37" value="DIRECCION" style="ellipse;whiteSpace=wrap;html=1;" vertex="1" parent="1">
          <mxGeometry x="50" y="800" width="90" height="50" as="geometry" />
        </mxCell>
        <mxCell id="rzQN3DZ-VCI8eHmGOcTg-51" style="edgeStyle=orthogonalEdgeStyle;rounded=0;orthogonalLoop=1;jettySize=auto;html=1;exitX=0.5;exitY=0;exitDx=0;exitDy=0;entryX=1;entryY=0.9;entryDx=0;entryDy=0;entryPerimeter=0;endArrow=none;endFill=0;" edge="1" parent="1" source="rzQN3DZ-VCI8eHmGOcTg-39" target="rzQN3DZ-VCI8eHmGOcTg-34">
          <mxGeometry relative="1" as="geometry" />
        </mxCell>
        <mxCell id="rzQN3DZ-VCI8eHmGOcTg-39" value="TELEFONO" style="ellipse;whiteSpace=wrap;html=1;" vertex="1" parent="1">
          <mxGeometry x="350" y="800" width="90" height="50" as="geometry" />
        </mxCell>
        <mxCell id="rzQN3DZ-VCI8eHmGOcTg-55" style="edgeStyle=orthogonalEdgeStyle;rounded=0;orthogonalLoop=1;jettySize=auto;html=1;exitX=0.5;exitY=0;exitDx=0;exitDy=0;entryX=0.75;entryY=1;entryDx=0;entryDy=0;endArrow=none;endFill=0;" edge="1" parent="1" source="rzQN3DZ-VCI8eHmGOcTg-48" target="rzQN3DZ-VCI8eHmGOcTg-34">
          <mxGeometry relative="1" as="geometry" />
        </mxCell>
        <mxCell id="rzQN3DZ-VCI8eHmGOcTg-48" value="APELLIDOS" style="ellipse;whiteSpace=wrap;html=1;" vertex="1" parent="1">
          <mxGeometry x="295" y="880" width="90" height="50" as="geometry" />
        </mxCell>
        <mxCell id="rzQN3DZ-VCI8eHmGOcTg-54" style="edgeStyle=orthogonalEdgeStyle;rounded=0;orthogonalLoop=1;jettySize=auto;html=1;exitX=0.5;exitY=0;exitDx=0;exitDy=0;entryX=0.25;entryY=1;entryDx=0;entryDy=0;endArrow=none;endFill=0;" edge="1" parent="1" source="rzQN3DZ-VCI8eHmGOcTg-49" target="rzQN3DZ-VCI8eHmGOcTg-34">
          <mxGeometry relative="1" as="geometry" />
        </mxCell>
        <mxCell id="rzQN3DZ-VCI8eHmGOcTg-49" value="CODIGO" style="ellipse;whiteSpace=wrap;html=1;" vertex="1" parent="1">
          <mxGeometry x="115" y="880" width="90" height="50" as="geometry" />
        </mxCell>
        <mxCell id="rzQN3DZ-VCI8eHmGOcTg-56" value="M:N" style="text;html=1;strokeColor=none;fillColor=none;align=center;verticalAlign=middle;whiteSpace=wrap;rounded=0;" vertex="1" parent="1">
          <mxGeometry x="295" y="580" width="40" height="20" as="geometry" />
        </mxCell>
        <mxCell id="rzQN3DZ-VCI8eHmGOcTg-58" value="M:N" style="text;html=1;strokeColor=none;fillColor=none;align=center;verticalAlign=middle;whiteSpace=wrap;rounded=0;" vertex="1" parent="1">
          <mxGeometry x="390" y="460" width="40" height="20" as="geometry" />
        </mxCell>
        <mxCell id="rzQN3DZ-VCI8eHmGOcTg-62" style="edgeStyle=orthogonalEdgeStyle;rounded=0;orthogonalLoop=1;jettySize=auto;html=1;exitX=0.5;exitY=1;exitDx=0;exitDy=0;entryX=0.5;entryY=0;entryDx=0;entryDy=0;endArrow=none;endFill=0;" edge="1" parent="1" source="rzQN3DZ-VCI8eHmGOcTg-60" target="rzQN3DZ-VCI8eHmGOcTg-1">
          <mxGeometry relative="1" as="geometry" />
        </mxCell>
        <mxCell id="rzQN3DZ-VCI8eHmGOcTg-60" value="FECHA COMPRA" style="ellipse;whiteSpace=wrap;html=1;" vertex="1" parent="1">
          <mxGeometry x="365" y="280" width="90" height="50" as="geometry" />
        </mxCell>
      </root>
    </mxGraphModel>
  </diagram>
</mxfile>
